<svg width="137" height="32" viewBox="0 0 137 32" fill="none" xmlns="http://www.w3.org/2000/svg">
<path d="M1.09726 31.5556C0.804661 31.5556 0.541317 31.4519 0.307234 31.2444C0.102411 31.037 0 30.7704 0 30.4444V1.55556C0 1.22963 0.102411 0.962963 0.307234 0.755556C0.541317 0.548148 0.804661 0.444444 1.09726 0.444444H5.17909C5.618 0.444444 5.93986 0.562963 6.14468 0.8C6.37877 1.03704 6.5397 1.21482 6.62748 1.33333L14.7033 16.4L22.867 1.33333C22.9255 1.21482 23.0572 1.03704 23.262 0.8C23.4961 0.562963 23.8326 0.444444 24.2715 0.444444H28.3533C28.6752 0.444444 28.9385 0.548148 29.1433 0.755556C29.3482 0.962963 29.4506 1.22963 29.4506 1.55556V30.4444C29.4506 30.7704 29.3482 31.037 29.1433 31.2444C28.9385 31.4519 28.6752 31.5556 28.3533 31.5556H23.8765C23.5839 31.5556 23.3352 31.4519 23.1303 31.2444C22.9255 31.037 22.8231 30.7704 22.8231 30.4444V12.4889L17.249 23.0667C17.1027 23.3333 16.9125 23.5704 16.6784 23.7778C16.4443 23.9852 16.1371 24.0889 15.7567 24.0889H13.6939C13.3135 24.0889 13.0062 23.9852 12.7722 23.7778C12.5381 23.5704 12.3479 23.3333 12.2016 23.0667L6.62748 12.4889V30.4444C6.62748 30.7704 6.52507 31.037 6.32024 31.2444C6.11542 31.4519 5.86671 31.5556 5.5741 31.5556H1.09726Z" fill="#FBFBFB"/>
<path d="M42.1936 32C40.6428 32 39.2529 31.7037 38.024 31.1111C36.7951 30.4889 35.8148 29.6593 35.0833 28.6222C34.3518 27.5852 33.9861 26.4296 33.9861 25.1556C33.9861 23.0519 34.82 21.3926 36.4878 20.1778C38.1849 18.963 40.4087 18.1333 43.1592 17.6889L48.9089 16.8444V16.0444C48.9089 14.8889 48.6455 14 48.1188 13.3778C47.5921 12.7556 46.6704 12.4444 45.3537 12.4444C44.3881 12.4444 43.6127 12.637 43.0275 13.0222C42.4423 13.4074 41.9888 13.9111 41.6669 14.5333C41.4328 14.9185 41.0963 15.1111 40.6574 15.1111H36.4878C36.166 15.1111 35.9172 15.0222 35.7417 14.8444C35.5661 14.637 35.493 14.4 35.5222 14.1333C35.5222 13.6296 35.7124 13.037 36.0928 12.3556C36.4732 11.6741 37.0584 11.0074 37.8484 10.3556C38.6385 9.67408 39.6479 9.11111 40.8769 8.66667C42.1058 8.22222 43.6127 8 45.3976 8C47.241 8 48.8211 8.22222 50.1378 8.66667C51.4545 9.11111 52.5079 9.73333 53.2979 10.5333C54.0879 11.3333 54.6731 12.2667 55.0535 13.3333C55.4339 14.3704 55.6241 15.4963 55.6241 16.7111V30.4444C55.6241 30.7704 55.5217 31.037 55.3169 31.2444C55.1121 31.4519 54.8487 31.5556 54.5268 31.5556H50.2256C49.933 31.5556 49.6843 31.4519 49.4794 31.2444C49.2746 31.037 49.1722 30.7704 49.1722 30.4444V28.8C48.7918 29.363 48.2798 29.8963 47.636 30.4C46.9923 30.8741 46.2169 31.2593 45.3098 31.5556C44.432 31.8519 43.3933 32 42.1936 32ZM43.9492 27.3778C44.9148 27.3778 45.778 27.1704 46.5388 26.7556C47.2995 26.3407 47.8994 25.7037 48.3383 24.8444C48.7772 23.9852 48.9966 22.9037 48.9966 21.6V20.8444L44.9148 21.5111C43.3347 21.7778 42.179 22.1778 41.4475 22.7111C40.7159 23.2444 40.3502 23.8963 40.3502 24.6667C40.3502 25.2296 40.5111 25.7185 40.833 26.1333C41.1841 26.5481 41.6376 26.8593 42.1936 27.0667C42.7495 27.2741 43.3347 27.3778 43.9492 27.3778Z" fill="#FBFBFB"/>
<path d="M61.9917 31.5556C61.6991 31.5556 61.4504 31.4519 61.2455 31.2444C61.0407 31.037 60.9383 30.7704 60.9383 30.4444V9.55556C60.9383 9.25926 61.0407 9.00741 61.2455 8.8C61.4504 8.56296 61.6991 8.44444 61.9917 8.44444H66.2929C66.5856 8.44444 66.8343 8.56296 67.0391 8.8C67.2732 9.00741 67.3902 9.25926 67.3902 9.55556V11.3333C68.1217 10.4148 69.0142 9.7037 70.0675 9.2C71.1502 8.6963 72.3937 8.44444 73.7982 8.44444H75.6855C75.9781 8.44444 76.2269 8.54815 76.4317 8.75556C76.6365 8.96296 76.7389 9.22963 76.7389 9.55556V13.3778C76.7389 13.7037 76.6365 13.9704 76.4317 14.1778C76.2269 14.3852 75.9781 14.4889 75.6855 14.4889H71.8232C70.5357 14.4889 69.5262 14.8593 68.7947 15.6C68.0632 16.3111 67.6974 17.3333 67.6974 18.6667V30.4444C67.6974 30.7704 67.595 31.037 67.3902 31.2444C67.1854 31.4519 66.9221 31.5556 66.6002 31.5556H61.9917Z" fill="#FBFBFB"/>
<path d="M88.0877 31.5556C87.6488 31.5556 87.3123 31.4519 87.0782 31.2444C86.8734 31.0074 86.6978 30.7407 86.5515 30.4444L78.3001 9.82222C78.2416 9.7037 78.2123 9.57037 78.2123 9.42222C78.2123 9.15556 78.3001 8.93333 78.4757 8.75556C78.6805 8.54815 78.9146 8.44444 79.1779 8.44444H83.4353C83.8157 8.44444 84.0937 8.54815 84.2692 8.75556C84.4741 8.96296 84.6057 9.15556 84.6642 9.33333L90.0628 24L95.4613 9.33333C95.5491 9.15556 95.6808 8.96296 95.8563 8.75556C96.0612 8.54815 96.3391 8.44444 96.6903 8.44444H100.948C101.211 8.44444 101.43 8.54815 101.606 8.75556C101.811 8.93333 101.913 9.15556 101.913 9.42222C101.913 9.57037 101.899 9.7037 101.869 9.82222L93.574 30.4444C93.457 30.7407 93.2814 31.0074 93.0473 31.2444C92.8133 31.4519 92.4768 31.5556 92.0379 31.5556H88.0877Z" fill="#FBFBFB"/>
<path d="M114.969 32C111.604 32 108.926 31.0519 106.937 29.1556C104.976 27.2593 103.937 24.5037 103.82 20.8889C103.82 20.6519 103.82 20.3407 103.82 19.9556C103.82 19.5407 103.82 19.2148 103.82 18.9778C103.937 16.6963 104.45 14.7407 105.357 13.1111C106.264 11.4519 107.536 10.1926 109.175 9.33333C110.814 8.44444 112.73 8 114.925 8C117.383 8 119.431 8.51852 121.069 9.55556C122.737 10.563 123.981 11.9556 124.8 13.7333C125.649 15.4815 126.073 17.4963 126.073 19.7778V20.8C126.073 21.0963 125.956 21.3481 125.722 21.5556C125.517 21.763 125.268 21.8667 124.976 21.8667H110.623C110.623 21.8963 110.623 21.9556 110.623 22.0444C110.623 22.1037 110.623 22.163 110.623 22.2222C110.653 23.1704 110.828 24.0444 111.15 24.8444C111.501 25.6148 111.984 26.237 112.599 26.7111C113.242 27.1852 114.003 27.4222 114.881 27.4222C115.612 27.4222 116.212 27.3185 116.68 27.1111C117.149 26.9037 117.529 26.6519 117.822 26.3556C118.143 26.0593 118.377 25.8074 118.524 25.6C118.787 25.3037 118.992 25.1259 119.138 25.0667C119.314 24.9778 119.577 24.9333 119.928 24.9333H124.493C124.785 24.9333 125.02 25.0222 125.195 25.2C125.4 25.3481 125.488 25.5704 125.458 25.8667C125.429 26.3407 125.181 26.9333 124.712 27.6444C124.273 28.3259 123.615 29.0074 122.737 29.6889C121.859 30.3407 120.762 30.8889 119.445 31.3333C118.158 31.7778 116.666 32 114.969 32ZM110.623 17.8222H119.226V17.7333C119.226 16.6667 119.05 15.7481 118.699 14.9778C118.377 14.1778 117.895 13.5556 117.251 13.1111C116.607 12.6667 115.832 12.4444 114.925 12.4444C114.018 12.4444 113.242 12.6667 112.599 13.1111C111.955 13.5556 111.457 14.1778 111.106 14.9778C110.784 15.7481 110.623 16.6667 110.623 17.7333V17.8222Z" fill="#FBFBFB"/>
<path d="M131.558 31.5556C131.236 31.5556 130.972 31.4519 130.768 31.2444C130.563 31.037 130.46 30.7704 130.46 30.4444V1.11111C130.46 0.785185 130.563 0.518519 130.768 0.311112C130.972 0.103704 131.236 0 131.558 0H135.947C136.239 0 136.488 0.103704 136.693 0.311112C136.898 0.518519 137 0.785185 137 1.11111V30.4444C137 30.7704 136.898 31.037 136.693 31.2444C136.488 31.4519 136.239 31.5556 135.947 31.5556H131.558Z" fill="#FBFBFB"/>
</svg>
